# vertices
v 0 0 1
v 0.894427 0 0.447214
v 0.276394 0.85065 0.447214
v -0.723606 0.525733 0.447214
v -0.723608 -0.525729 0.447214
v 0.27639 -0.850652 0.447214
v 0.723607 0.525731 -0.447214
v -0.276392 0.850651 -0.447214
v -0.894427 2.37344e-06 -0.447214
v -0.276396 -0.85065 -0.447214
v 0.723604 -0.525735 -0.447214
v 0 0 -1
v 0.688191 0.499999 0.525732
v 0.16246 0.5 0.850651
v 0.525731 0 0.850651
v -0.262864 0.809017 0.525731
v -0.425325 0.309018 0.850651
v 0.16246 0.5 0.850651
v -0.850651 2.34733e-06 0.525731
v -0.425326 -0.309016 0.850651
v -0.425325 0.309018 0.850651
v -0.262868 -0.809016 0.525731
v 0.162458 -0.500001 0.850651
v -0.425326 -0.309016 0.850651
v 0.688189 -0.500001 0.525732
v 0.525731 0 0.850651
v 0.162458 -0.500001 0.850651
v 0.951057 0.309017 0
v 0.587786 0.809017 0
v 0.688191 0.499999 0.525732
v 1.17366e-06 1 0
v -0.587784 0.809018 0
v -0.262864 0.809017 0.525731
v -0.951056 0.309019 0
v -0.951057 -0.309014 0
v -0.850651 2.34733e-06 0.525731
v -0.587788 -0.809015 0
v -3.53851e-06 -1 0
v -0.262868 -0.809016 0.525731
v 0.587782 -0.80902 0
v 0.951056 -0.30902 0
v 0.688189 -0.500001 0.525732
v 0.85065 -2.34733e-06 -0.525732
v 0.951057 0.309017 0
v 0.951056 -0.30902 0
v 0.262866 0.809017 -0.525731
v 1.17366e-06 1 0
v 0.587786 0.809017 0
v -0.68819 0.500001 -0.525731
v -0.951056 0.309019 0
v -0.587784 0.809018 0
v -0.688192 -0.499998 -0.525731
v -0.587788 -0.809015 0
v -0.951057 -0.309014 0
v 0.262862 -0.809018 -0.525731
v 0.587782 -0.80902 0
v -3.53851e-06 -1 0
v 0.425324 -0.309019 -0.850651
v 0.425325 0.309017 -0.850651
v 0.85065 -2.34733e-06 -0.525732
v 0.425325 0.309017 -0.850651
v -0.162459 0.5 -0.850651
v 0.262866 0.809017 -0.525731
v -0.162459 0.5 -0.850651
v -0.525731 1.39507e-06 -0.850651
v -0.68819 0.500001 -0.525731
v -0.525731 1.39507e-06 -0.850651
v -0.162461 -0.499999 -0.850651
v -0.688192 -0.499998 -0.525731
v -0.162461 -0.499999 -0.850651
v 0.425324 -0.309019 -0.850651
v 0.262862 -0.809018 -0.525731

# texture coordinates
vt 0.5 1
vt 0.352416 0
vt 0.352416 0.2
vt 0.352416 0.4
vt 0.352416 0.6
vt 0.352416 0.8
vt 0.647584 0.1
vt 0.647584 0.3
vt 0.647584 0.5
vt 0.647584 0.7
vt 0.647584 0.9
vt 0.5 0
vt 0.6 0.323792
vt 0.7 0.176208
vt 0.5 0.176208
vt 0.8 0.323792
vt 0.9 0.176208
vt 0.7 0.176208
vt 1 0.323792
vt 0.0999992 0.176208
vt 0.9 0.176208
vt 0.199999 0.323792
vt 0.299999 0.176208
vt 0.0999992 0.176208
vt 0.4 0.323791
vt 0.5 0.176208
vt 0.299999 0.176208
vt 0.55 0.5
vt 0.65 0.5
vt 0.6 0.323792
vt 0.75 0.5
vt 0.85 0.5
vt 0.8 0.323792
vt 0.95 0.5
vt 0.0499992 0.5
vt 1 0.323792
vt 0.149999 0.5
vt 0.249999 0.5
vt 0.199999 0.323792
vt 0.349999 0.5
vt 0.45 0.5
vt 0.4 0.323791
vt 0.5 0.676209
vt 0.55 0.5
vt 0.45 0.5
vt 0.7 0.676208
vt 0.75 0.5
vt 0.65 0.5
vt 0.9 0.676208
vt 0.95 0.5
vt 0.85 0.5
vt 0.0999992 0.676208
vt 0.149999 0.5
vt 0.0499992 0.5
vt 0.299999 0.676208
vt 0.349999 0.5
vt 0.249999 0.5
vt 0.399999 0.823792
vt 0.6 0.823792
vt 0.5 0.676209
vt 0.6 0.823792
vt 0.8 0.823792
vt 0.7 0.676208
vt 0.8 0.823792
vt 1 0.823792
vt 0.9 0.676208
vt 1 0.823792
vt 0.199999 0.823792
vt 0.0999992 0.676208
vt 0.199999 0.823792
vt 0.399999 0.823792
vt 0.299999 0.676208

# vertex normals
vn 0 0 1
vn 0.894427 0 0.447214
vn 0.276394 0.85065 0.447214
vn -0.723606 0.525733 0.447214
vn -0.723608 -0.525729 0.447214
vn 0.27639 -0.850652 0.447214
vn 0.723607 0.525731 -0.447214
vn -0.276392 0.850651 -0.447214
vn -0.894427 2.37344e-06 -0.447214
vn -0.276396 -0.85065 -0.447214
vn 0.723604 -0.525735 -0.447214
vn 0 0 -1
vn 0.688191 0.499999 0.525732
vn 0.16246 0.5 0.850651
vn 0.525731 0 0.850651
vn -0.262864 0.809017 0.525731
vn -0.425325 0.309018 0.850651
vn 0.16246 0.5 0.850651
vn -0.850651 2.34733e-06 0.525731
vn -0.425326 -0.309016 0.850651
vn -0.425325 0.309018 0.850651
vn -0.262868 -0.809016 0.525731
vn 0.162458 -0.500001 0.850651
vn -0.425326 -0.309016 0.850651
vn 0.688189 -0.500001 0.525732
vn 0.525731 0 0.850651
vn 0.162458 -0.500001 0.850651
vn 0.951057 0.309017 0
vn 0.587786 0.809017 0
vn 0.688191 0.499999 0.525732
vn 1.17366e-06 1 0
vn -0.587784 0.809018 0
vn -0.262864 0.809017 0.525731
vn -0.951056 0.309019 0
vn -0.951057 -0.309014 0
vn -0.850651 2.34733e-06 0.525731
vn -0.587788 -0.809015 0
vn -3.53851e-06 -1 0
vn -0.262868 -0.809016 0.525731
vn 0.587782 -0.80902 0
vn 0.951056 -0.30902 0
vn 0.688189 -0.500001 0.525732
vn 0.85065 -2.34733e-06 -0.525732
vn 0.951057 0.309017 0
vn 0.951056 -0.30902 0
vn 0.262866 0.809017 -0.525731
vn 1.17366e-06 1 0
vn 0.587786 0.809017 0
vn -0.68819 0.500001 -0.525731
vn -0.951056 0.309019 0
vn -0.587784 0.809018 0
vn -0.688192 -0.499998 -0.525731
vn -0.587788 -0.809015 0
vn -0.951057 -0.309014 0
vn 0.262862 -0.809018 -0.525731
vn 0.587782 -0.80902 0
vn -3.53851e-06 -1 0
vn 0.425324 -0.309019 -0.850651
vn 0.425325 0.309017 -0.850651
vn 0.85065 -2.34733e-06 -0.525732
vn 0.425325 0.309017 -0.850651
vn -0.162459 0.5 -0.850651
vn 0.262866 0.809017 -0.525731
vn -0.162459 0.5 -0.850651
vn -0.525731 1.39507e-06 -0.850651
vn -0.68819 0.500001 -0.525731
vn -0.525731 1.39507e-06 -0.850651
vn -0.162461 -0.499999 -0.850651
vn -0.688192 -0.499998 -0.525731
vn -0.162461 -0.499999 -0.850651
vn 0.425324 -0.309019 -0.850651
vn 0.262862 -0.809018 -0.525731

# faces
f 1/1/1 15/15/15 14/14/14
f 2/2/2 13/13/13 15/15/15
f 3/3/3 14/14/14 13/13/13
f 13/13/13 14/14/14 15/15/15
f 1/1/1 18/18/18 17/17/17
f 3/3/3 16/16/16 18/18/18
f 4/4/4 17/17/17 16/16/16
f 16/16/16 17/17/17 18/18/18
f 1/1/1 21/21/21 20/20/20
f 4/4/4 19/19/19 21/21/21
f 5/5/5 20/20/20 19/19/19
f 19/19/19 20/20/20 21/21/21
f 1/1/1 24/24/24 23/23/23
f 5/5/5 22/22/22 24/24/24
f 6/6/6 23/23/23 22/22/22
f 22/22/22 23/23/23 24/24/24
f 1/1/1 27/27/27 26/26/26
f 6/6/6 25/25/25 27/27/27
f 2/2/2 26/26/26 25/25/25
f 25/25/25 26/26/26 27/27/27
f 3/3/3 30/30/30 29/29/29
f 2/2/2 28/28/28 30/30/30
f 7/7/7 29/29/29 28/28/28
f 28/28/28 29/29/29 30/30/30
f 4/4/4 33/33/33 32/32/32
f 3/3/3 31/31/31 33/33/33
f 8/8/8 32/32/32 31/31/31
f 31/31/31 32/32/32 33/33/33
f 5/5/5 36/36/36 35/35/35
f 4/4/4 34/34/34 36/36/36
f 9/9/9 35/35/35 34/34/34
f 34/34/34 35/35/35 36/36/36
f 6/6/6 39/39/39 38/38/38
f 5/5/5 37/37/37 39/39/39
f 10/10/10 38/38/38 37/37/37
f 37/37/37 38/38/38 39/39/39
f 2/2/2 42/42/42 41/41/41
f 6/6/6 40/40/40 42/42/42
f 11/11/11 41/41/41 40/40/40
f 40/40/40 41/41/41 42/42/42
f 2/2/2 45/45/45 44/44/44
f 11/11/11 43/43/43 45/45/45
f 7/7/7 44/44/44 43/43/43
f 43/43/43 44/44/44 45/45/45
f 3/3/3 48/48/48 47/47/47
f 7/7/7 46/46/46 48/48/48
f 8/8/8 47/47/47 46/46/46
f 46/46/46 47/47/47 48/48/48
f 4/4/4 51/51/51 50/50/50
f 8/8/8 49/49/49 51/51/51
f 9/9/9 50/50/50 49/49/49
f 49/49/49 50/50/50 51/51/51
f 5/5/5 54/54/54 53/53/53
f 9/9/9 52/52/52 54/54/54
f 10/10/10 53/53/53 52/52/52
f 52/52/52 53/53/53 54/54/54
f 6/6/6 57/57/57 56/56/56
f 10/10/10 55/55/55 57/57/57
f 11/11/11 56/56/56 55/55/55
f 55/55/55 56/56/56 57/57/57
f 7/7/7 60/60/60 59/59/59
f 11/11/11 58/58/58 60/60/60
f 12/12/12 59/59/59 58/58/58
f 58/58/58 59/59/59 60/60/60
f 8/8/8 63/63/63 62/62/62
f 7/7/7 61/61/61 63/63/63
f 12/12/12 62/62/62 61/61/61
f 61/61/61 62/62/62 63/63/63
f 9/9/9 66/66/66 65/65/65
f 8/8/8 64/64/64 66/66/66
f 12/12/12 65/65/65 64/64/64
f 64/64/64 65/65/65 66/66/66
f 10/10/10 69/69/69 68/68/68
f 9/9/9 67/67/67 69/69/69
f 12/12/12 68/68/68 67/67/67
f 67/67/67 68/68/68 69/69/69
f 11/11/11 72/72/72 71/71/71
f 10/10/10 70/70/70 72/72/72
f 12/12/12 71/71/71 70/70/70
f 70/70/70 71/71/71 72/72/72
