# vertices
v 0 0 1
v 0.894427 0 0.447214
v 0.276394 0.85065 0.447214
v -0.723606 0.525733 0.447214
v -0.723608 -0.525729 0.447214
v 0.27639 -0.850652 0.447214
v 0.723607 0.525731 -0.447214
v -0.276392 0.850651 -0.447214
v -0.894427 2.37344e-06 -0.447214
v -0.276396 -0.85065 -0.447214
v 0.723604 -0.525735 -0.447214
v 0 0 -1

# texture coordinates
vt 0.5 1
vt 0.352416 0
vt 0.352416 0.2
vt 0.352416 0.4
vt 0.352416 0.6
vt 0.352416 0.8
vt 0.647584 0.1
vt 0.647584 0.3
vt 0.647584 0.5
vt 0.647584 0.7
vt 0.647584 0.9
vt 0.5 0

# vertex normals
vn 0 0 1
vn 0.894427 0 0.447214
vn 0.276394 0.85065 0.447214
vn -0.723606 0.525733 0.447214
vn -0.723608 -0.525729 0.447214
vn 0.27639 -0.850652 0.447214
vn 0.723607 0.525731 -0.447214
vn -0.276392 0.850651 -0.447214
vn -0.894427 2.37344e-06 -0.447214
vn -0.276396 -0.85065 -0.447214
vn 0.723604 -0.525735 -0.447214
vn 0 0 -1

# faces
f 1/1/1 2/2/2 3/3/3
f 1/1/1 3/3/3 4/4/4
f 1/1/1 4/4/4 5/5/5
f 1/1/1 5/5/5 6/6/6
f 1/1/1 6/6/6 2/2/2
f 3/3/3 2/2/2 7/7/7
f 4/4/4 3/3/3 8/8/8
f 5/5/5 4/4/4 9/9/9
f 6/6/6 5/5/5 10/10/10
f 2/2/2 6/6/6 11/11/11
f 2/2/2 11/11/11 7/7/7
f 3/3/3 7/7/7 8/8/8
f 4/4/4 8/8/8 9/9/9
f 5/5/5 9/9/9 10/10/10
f 6/6/6 10/10/10 11/11/11
f 7/7/7 11/11/11 12/12/12
f 8/8/8 7/7/7 12/12/12
f 9/9/9 8/8/8 12/12/12
f 10/10/10 9/9/9 12/12/12
f 11/11/11 10/10/10 12/12/12
